<mxfile host="app.diagrams.net" agent="Mozilla/5.0 (Windows NT 10.0; Win64; x64) AppleWebKit/537.36 (KHTML, like Gecko) Chrome/128.0.0.0 Safari/537.36" version="24.7.16" pages="2">
  <diagram name="Сторінка-1" id="PRGC68dZmm-mIPjaW7XS">
    <mxGraphModel dx="1615" dy="803" grid="1" gridSize="10" guides="1" tooltips="1" connect="1" arrows="1" fold="1" page="1" pageScale="1" pageWidth="1654" pageHeight="2336" math="0" shadow="0">
      <root>
        <mxCell id="0" />
        <mxCell id="1" parent="0" />
        <mxCell id="UAIuvrHtkqbEcLJx0df5-4" value="" style="edgeStyle=orthogonalEdgeStyle;rounded=0;orthogonalLoop=1;jettySize=auto;html=1;" edge="1" parent="1" source="UAIuvrHtkqbEcLJx0df5-2" target="UAIuvrHtkqbEcLJx0df5-3">
          <mxGeometry relative="1" as="geometry" />
        </mxCell>
        <mxCell id="UAIuvrHtkqbEcLJx0df5-2" value="" style="ellipse;shape=doubleEllipse;html=1;dashed=0;whiteSpace=wrap;aspect=fixed;" vertex="1" parent="1">
          <mxGeometry x="809" y="120" width="37" height="37" as="geometry" />
        </mxCell>
        <mxCell id="UAIuvrHtkqbEcLJx0df5-6" value="" style="edgeStyle=orthogonalEdgeStyle;rounded=0;orthogonalLoop=1;jettySize=auto;html=1;fontFamily=Helvetica;fontSize=12;fontColor=default;" edge="1" parent="1" source="UAIuvrHtkqbEcLJx0df5-3" target="UAIuvrHtkqbEcLJx0df5-5">
          <mxGeometry relative="1" as="geometry" />
        </mxCell>
        <mxCell id="UAIuvrHtkqbEcLJx0df5-3" value="&lt;font color=&quot;#3399ff&quot;&gt;ввід &lt;/font&gt;k, N" style="whiteSpace=wrap;html=1;dashed=0;rounded=1;arcSize=50;" vertex="1" parent="1">
          <mxGeometry x="778.75" y="200" width="97.5" height="34.5" as="geometry" />
        </mxCell>
        <mxCell id="UAIuvrHtkqbEcLJx0df5-8" value="" style="edgeStyle=orthogonalEdgeStyle;rounded=0;orthogonalLoop=1;jettySize=auto;html=1;fontFamily=Helvetica;fontSize=12;fontColor=default;" edge="1" parent="1" source="UAIuvrHtkqbEcLJx0df5-5" target="UAIuvrHtkqbEcLJx0df5-7">
          <mxGeometry relative="1" as="geometry" />
        </mxCell>
        <mxCell id="UAIuvrHtkqbEcLJx0df5-5" value="S = 0" style="whiteSpace=wrap;html=1;dashed=0;rounded=1;arcSize=50;" vertex="1" parent="1">
          <mxGeometry x="778.75" y="270" width="97.5" height="34.5" as="geometry" />
        </mxCell>
        <mxCell id="UAIuvrHtkqbEcLJx0df5-10" value="" style="edgeStyle=orthogonalEdgeStyle;rounded=0;orthogonalLoop=1;jettySize=auto;html=1;fontFamily=Helvetica;fontSize=12;fontColor=default;" edge="1" parent="1" source="UAIuvrHtkqbEcLJx0df5-7" target="UAIuvrHtkqbEcLJx0df5-9">
          <mxGeometry relative="1" as="geometry" />
        </mxCell>
        <mxCell id="UAIuvrHtkqbEcLJx0df5-7" value="i = k" style="whiteSpace=wrap;html=1;dashed=0;rounded=1;arcSize=50;" vertex="1" parent="1">
          <mxGeometry x="778" y="340" width="97.5" height="34.5" as="geometry" />
        </mxCell>
        <mxCell id="UAIuvrHtkqbEcLJx0df5-12" value="" style="edgeStyle=orthogonalEdgeStyle;rounded=0;orthogonalLoop=1;jettySize=auto;html=1;fontFamily=Helvetica;fontSize=12;fontColor=default;" edge="1" parent="1" source="UAIuvrHtkqbEcLJx0df5-9" target="UAIuvrHtkqbEcLJx0df5-11">
          <mxGeometry relative="1" as="geometry" />
        </mxCell>
        <mxCell id="UAIuvrHtkqbEcLJx0df5-9" value="" style="rhombus;whiteSpace=wrap;html=1;dashed=0;rounded=0;arcSize=50;" vertex="1" parent="1">
          <mxGeometry x="811.88" y="410" width="31.25" height="30" as="geometry" />
        </mxCell>
        <mxCell id="UAIuvrHtkqbEcLJx0df5-14" value="" style="edgeStyle=orthogonalEdgeStyle;rounded=0;orthogonalLoop=1;jettySize=auto;html=1;fontFamily=Helvetica;fontSize=12;fontColor=default;" edge="1" parent="1" source="UAIuvrHtkqbEcLJx0df5-11" target="UAIuvrHtkqbEcLJx0df5-13">
          <mxGeometry relative="1" as="geometry" />
        </mxCell>
        <mxCell id="UAIuvrHtkqbEcLJx0df5-20" value="" style="edgeStyle=orthogonalEdgeStyle;rounded=0;orthogonalLoop=1;jettySize=auto;html=1;fontFamily=Helvetica;fontSize=12;fontColor=default;" edge="1" parent="1" source="UAIuvrHtkqbEcLJx0df5-11" target="UAIuvrHtkqbEcLJx0df5-19">
          <mxGeometry relative="1" as="geometry" />
        </mxCell>
        <mxCell id="UAIuvrHtkqbEcLJx0df5-11" value="" style="rhombus;whiteSpace=wrap;html=1;dashed=0;rounded=0;arcSize=50;" vertex="1" parent="1">
          <mxGeometry x="811.88" y="500" width="31.25" height="30" as="geometry" />
        </mxCell>
        <mxCell id="UAIuvrHtkqbEcLJx0df5-16" value="" style="edgeStyle=orthogonalEdgeStyle;rounded=0;orthogonalLoop=1;jettySize=auto;html=1;fontFamily=Helvetica;fontSize=12;fontColor=default;" edge="1" parent="1" source="UAIuvrHtkqbEcLJx0df5-13" target="UAIuvrHtkqbEcLJx0df5-15">
          <mxGeometry relative="1" as="geometry" />
        </mxCell>
        <mxCell id="UAIuvrHtkqbEcLJx0df5-13" value="S += (pow(sin(i), 2) + pow(cos(1.0 / i), 2)) / pow(i, 2)" style="whiteSpace=wrap;html=1;dashed=0;rounded=1;arcSize=50;" vertex="1" parent="1">
          <mxGeometry x="1000" y="486.88" width="140" height="56.25" as="geometry" />
        </mxCell>
        <mxCell id="UAIuvrHtkqbEcLJx0df5-17" style="edgeStyle=orthogonalEdgeStyle;rounded=0;orthogonalLoop=1;jettySize=auto;html=1;entryX=1;entryY=0.5;entryDx=0;entryDy=0;fontFamily=Helvetica;fontSize=12;fontColor=default;" edge="1" parent="1" source="UAIuvrHtkqbEcLJx0df5-15" target="UAIuvrHtkqbEcLJx0df5-9">
          <mxGeometry relative="1" as="geometry" />
        </mxCell>
        <mxCell id="UAIuvrHtkqbEcLJx0df5-15" value="i++" style="whiteSpace=wrap;html=1;dashed=0;rounded=1;arcSize=50;" vertex="1" parent="1">
          <mxGeometry x="1030" y="411.56" width="80" height="26.88" as="geometry" />
        </mxCell>
        <mxCell id="UAIuvrHtkqbEcLJx0df5-18" value="[i &amp;lt;= N]" style="text;html=1;align=center;verticalAlign=middle;resizable=0;points=[];autosize=1;strokeColor=none;fillColor=none;fontFamily=Helvetica;fontSize=12;fontColor=default;" vertex="1" parent="1">
          <mxGeometry x="841" y="486.88" width="60" height="30" as="geometry" />
        </mxCell>
        <mxCell id="UAIuvrHtkqbEcLJx0df5-36" value="" style="edgeStyle=orthogonalEdgeStyle;rounded=0;orthogonalLoop=1;jettySize=auto;html=1;fontFamily=Helvetica;fontSize=12;fontColor=default;entryX=0.5;entryY=0;entryDx=0;entryDy=0;" edge="1" parent="1" source="UAIuvrHtkqbEcLJx0df5-19" target="UAIuvrHtkqbEcLJx0df5-22">
          <mxGeometry relative="1" as="geometry" />
        </mxCell>
        <mxCell id="UAIuvrHtkqbEcLJx0df5-19" value="&lt;font color=&quot;#3399ff&quot;&gt;вивід &lt;/font&gt;S" style="whiteSpace=wrap;html=1;dashed=0;rounded=1;arcSize=50;" vertex="1" parent="1">
          <mxGeometry x="778.76" y="570" width="97.5" height="34.5" as="geometry" />
        </mxCell>
        <mxCell id="UAIuvrHtkqbEcLJx0df5-21" value="" style="edgeStyle=orthogonalEdgeStyle;rounded=0;orthogonalLoop=1;jettySize=auto;html=1;fontFamily=Helvetica;fontSize=12;fontColor=default;" edge="1" source="UAIuvrHtkqbEcLJx0df5-22" target="UAIuvrHtkqbEcLJx0df5-24" parent="1">
          <mxGeometry relative="1" as="geometry" />
        </mxCell>
        <mxCell id="UAIuvrHtkqbEcLJx0df5-22" value="S = 0" style="whiteSpace=wrap;html=1;dashed=0;rounded=1;arcSize=50;" vertex="1" parent="1">
          <mxGeometry x="778.75" y="640" width="97.5" height="34.5" as="geometry" />
        </mxCell>
        <mxCell id="UAIuvrHtkqbEcLJx0df5-23" value="" style="edgeStyle=orthogonalEdgeStyle;rounded=0;orthogonalLoop=1;jettySize=auto;html=1;fontFamily=Helvetica;fontSize=12;fontColor=default;" edge="1" source="UAIuvrHtkqbEcLJx0df5-24" target="UAIuvrHtkqbEcLJx0df5-26" parent="1">
          <mxGeometry relative="1" as="geometry" />
        </mxCell>
        <mxCell id="UAIuvrHtkqbEcLJx0df5-24" value="i = k" style="whiteSpace=wrap;html=1;dashed=0;rounded=1;arcSize=50;" vertex="1" parent="1">
          <mxGeometry x="778" y="710" width="97.5" height="34.5" as="geometry" />
        </mxCell>
        <mxCell id="UAIuvrHtkqbEcLJx0df5-38" value="" style="edgeStyle=orthogonalEdgeStyle;rounded=0;orthogonalLoop=1;jettySize=auto;html=1;fontFamily=Helvetica;fontSize=12;fontColor=default;" edge="1" parent="1" source="UAIuvrHtkqbEcLJx0df5-26" target="UAIuvrHtkqbEcLJx0df5-37">
          <mxGeometry relative="1" as="geometry" />
        </mxCell>
        <mxCell id="UAIuvrHtkqbEcLJx0df5-26" value="" style="rhombus;whiteSpace=wrap;html=1;dashed=0;rounded=0;arcSize=50;" vertex="1" parent="1">
          <mxGeometry x="811.88" y="780" width="31.25" height="30" as="geometry" />
        </mxCell>
        <mxCell id="UAIuvrHtkqbEcLJx0df5-28" value="" style="edgeStyle=orthogonalEdgeStyle;rounded=0;orthogonalLoop=1;jettySize=auto;html=1;fontFamily=Helvetica;fontSize=12;fontColor=default;" edge="1" source="UAIuvrHtkqbEcLJx0df5-29" target="UAIuvrHtkqbEcLJx0df5-35" parent="1">
          <mxGeometry relative="1" as="geometry" />
        </mxCell>
        <mxCell id="UAIuvrHtkqbEcLJx0df5-42" style="edgeStyle=orthogonalEdgeStyle;rounded=0;orthogonalLoop=1;jettySize=auto;html=1;entryX=1;entryY=0.5;entryDx=0;entryDy=0;fontFamily=Helvetica;fontSize=12;fontColor=default;" edge="1" parent="1" source="UAIuvrHtkqbEcLJx0df5-29" target="UAIuvrHtkqbEcLJx0df5-26">
          <mxGeometry relative="1" as="geometry">
            <Array as="points">
              <mxPoint x="920" y="1025" />
              <mxPoint x="920" y="795" />
            </Array>
          </mxGeometry>
        </mxCell>
        <mxCell id="UAIuvrHtkqbEcLJx0df5-29" value="" style="rhombus;whiteSpace=wrap;html=1;dashed=0;rounded=0;arcSize=50;" vertex="1" parent="1">
          <mxGeometry x="811.12" y="1010" width="31.25" height="30" as="geometry" />
        </mxCell>
        <mxCell id="UAIuvrHtkqbEcLJx0df5-45" value="" style="edgeStyle=orthogonalEdgeStyle;rounded=0;orthogonalLoop=1;jettySize=auto;html=1;fontFamily=Helvetica;fontSize=12;fontColor=default;" edge="1" parent="1" source="UAIuvrHtkqbEcLJx0df5-35" target="UAIuvrHtkqbEcLJx0df5-44">
          <mxGeometry relative="1" as="geometry" />
        </mxCell>
        <mxCell id="UAIuvrHtkqbEcLJx0df5-35" value="&lt;font color=&quot;#3399ff&quot;&gt;вивід &lt;/font&gt;S" style="whiteSpace=wrap;html=1;dashed=0;rounded=1;arcSize=50;" vertex="1" parent="1">
          <mxGeometry x="777.99" y="1070" width="97.5" height="34.5" as="geometry" />
        </mxCell>
        <mxCell id="UAIuvrHtkqbEcLJx0df5-40" value="" style="edgeStyle=orthogonalEdgeStyle;rounded=0;orthogonalLoop=1;jettySize=auto;html=1;fontFamily=Helvetica;fontSize=12;fontColor=default;" edge="1" parent="1" source="UAIuvrHtkqbEcLJx0df5-37" target="UAIuvrHtkqbEcLJx0df5-39">
          <mxGeometry relative="1" as="geometry" />
        </mxCell>
        <mxCell id="UAIuvrHtkqbEcLJx0df5-37" value="S += (pow(sin(i), 2) + pow(cos(1.0 / i), 2)) / pow(i, 2)" style="whiteSpace=wrap;html=1;dashed=0;rounded=1;arcSize=50;" vertex="1" parent="1">
          <mxGeometry x="756.75" y="850" width="140" height="56.25" as="geometry" />
        </mxCell>
        <mxCell id="UAIuvrHtkqbEcLJx0df5-41" value="" style="edgeStyle=orthogonalEdgeStyle;rounded=0;orthogonalLoop=1;jettySize=auto;html=1;fontFamily=Helvetica;fontSize=12;fontColor=default;" edge="1" parent="1" source="UAIuvrHtkqbEcLJx0df5-39" target="UAIuvrHtkqbEcLJx0df5-29">
          <mxGeometry relative="1" as="geometry" />
        </mxCell>
        <mxCell id="UAIuvrHtkqbEcLJx0df5-39" value="i++" style="whiteSpace=wrap;html=1;dashed=0;rounded=1;arcSize=50;" vertex="1" parent="1">
          <mxGeometry x="786.75" y="950" width="80" height="26.88" as="geometry" />
        </mxCell>
        <mxCell id="UAIuvrHtkqbEcLJx0df5-43" value="[i &amp;lt;= N]" style="text;html=1;align=center;verticalAlign=middle;resizable=0;points=[];autosize=1;strokeColor=none;fillColor=none;fontFamily=Helvetica;fontSize=12;fontColor=default;" vertex="1" parent="1">
          <mxGeometry x="846" y="1000" width="60" height="30" as="geometry" />
        </mxCell>
        <mxCell id="UAIuvrHtkqbEcLJx0df5-44" value="1" style="ellipse;whiteSpace=wrap;html=1;dashed=0;rounded=1;arcSize=50;" vertex="1" parent="1">
          <mxGeometry x="811.49" y="1136" width="30.88" height="32" as="geometry" />
        </mxCell>
      </root>
    </mxGraphModel>
  </diagram>
  <diagram id="UU_QZZUOVyOWBOTAPbD3" name="Сторінка-2">
    <mxGraphModel dx="1235" dy="614" grid="1" gridSize="10" guides="1" tooltips="1" connect="1" arrows="1" fold="1" page="1" pageScale="1" pageWidth="1654" pageHeight="2336" math="0" shadow="0">
      <root>
        <mxCell id="0" />
        <mxCell id="1" parent="0" />
        <mxCell id="6cbmy854WV_a_Utis2Cl-1" value="" style="edgeStyle=orthogonalEdgeStyle;rounded=0;orthogonalLoop=1;jettySize=auto;html=1;fontFamily=Helvetica;fontSize=12;fontColor=default;" edge="1" parent="1" source="6cbmy854WV_a_Utis2Cl-2" target="6cbmy854WV_a_Utis2Cl-4">
          <mxGeometry relative="1" as="geometry" />
        </mxCell>
        <mxCell id="6cbmy854WV_a_Utis2Cl-2" value="S = 0" style="whiteSpace=wrap;html=1;dashed=0;rounded=1;arcSize=50;" vertex="1" parent="1">
          <mxGeometry x="550.75" y="50" width="97.5" height="34.5" as="geometry" />
        </mxCell>
        <mxCell id="6cbmy854WV_a_Utis2Cl-3" value="" style="edgeStyle=orthogonalEdgeStyle;rounded=0;orthogonalLoop=1;jettySize=auto;html=1;fontFamily=Helvetica;fontSize=12;fontColor=default;" edge="1" parent="1" source="6cbmy854WV_a_Utis2Cl-4" target="6cbmy854WV_a_Utis2Cl-6">
          <mxGeometry relative="1" as="geometry" />
        </mxCell>
        <mxCell id="6cbmy854WV_a_Utis2Cl-4" value="i = k" style="whiteSpace=wrap;html=1;dashed=0;rounded=1;arcSize=50;" vertex="1" parent="1">
          <mxGeometry x="550" y="120" width="97.5" height="34.5" as="geometry" />
        </mxCell>
        <mxCell id="6cbmy854WV_a_Utis2Cl-5" value="" style="edgeStyle=orthogonalEdgeStyle;rounded=0;orthogonalLoop=1;jettySize=auto;html=1;fontFamily=Helvetica;fontSize=12;fontColor=default;" edge="1" parent="1" source="6cbmy854WV_a_Utis2Cl-6" target="6cbmy854WV_a_Utis2Cl-9">
          <mxGeometry relative="1" as="geometry" />
        </mxCell>
        <mxCell id="6cbmy854WV_a_Utis2Cl-6" value="" style="rhombus;whiteSpace=wrap;html=1;dashed=0;rounded=0;arcSize=50;" vertex="1" parent="1">
          <mxGeometry x="583.88" y="190" width="31.25" height="30" as="geometry" />
        </mxCell>
        <mxCell id="6cbmy854WV_a_Utis2Cl-7" value="" style="edgeStyle=orthogonalEdgeStyle;rounded=0;orthogonalLoop=1;jettySize=auto;html=1;fontFamily=Helvetica;fontSize=12;fontColor=default;" edge="1" parent="1" source="6cbmy854WV_a_Utis2Cl-9" target="6cbmy854WV_a_Utis2Cl-11">
          <mxGeometry relative="1" as="geometry" />
        </mxCell>
        <mxCell id="6cbmy854WV_a_Utis2Cl-8" value="" style="edgeStyle=orthogonalEdgeStyle;rounded=0;orthogonalLoop=1;jettySize=auto;html=1;fontFamily=Helvetica;fontSize=12;fontColor=default;" edge="1" parent="1" source="6cbmy854WV_a_Utis2Cl-9" target="6cbmy854WV_a_Utis2Cl-16">
          <mxGeometry relative="1" as="geometry" />
        </mxCell>
        <mxCell id="6cbmy854WV_a_Utis2Cl-9" value="" style="rhombus;whiteSpace=wrap;html=1;dashed=0;rounded=0;arcSize=50;" vertex="1" parent="1">
          <mxGeometry x="583.88" y="280" width="31.25" height="30" as="geometry" />
        </mxCell>
        <mxCell id="6cbmy854WV_a_Utis2Cl-10" value="" style="edgeStyle=orthogonalEdgeStyle;rounded=0;orthogonalLoop=1;jettySize=auto;html=1;fontFamily=Helvetica;fontSize=12;fontColor=default;" edge="1" parent="1" source="6cbmy854WV_a_Utis2Cl-11" target="6cbmy854WV_a_Utis2Cl-13">
          <mxGeometry relative="1" as="geometry" />
        </mxCell>
        <mxCell id="6cbmy854WV_a_Utis2Cl-11" value="S += (pow(sin(i), 2) + pow(cos(1.0 / i), 2)) / pow(i, 2)" style="whiteSpace=wrap;html=1;dashed=0;rounded=1;arcSize=50;" vertex="1" parent="1">
          <mxGeometry x="772" y="266.88" width="140" height="56.25" as="geometry" />
        </mxCell>
        <mxCell id="6cbmy854WV_a_Utis2Cl-12" style="edgeStyle=orthogonalEdgeStyle;rounded=0;orthogonalLoop=1;jettySize=auto;html=1;entryX=1;entryY=0.5;entryDx=0;entryDy=0;fontFamily=Helvetica;fontSize=12;fontColor=default;" edge="1" parent="1" source="6cbmy854WV_a_Utis2Cl-13" target="6cbmy854WV_a_Utis2Cl-6">
          <mxGeometry relative="1" as="geometry" />
        </mxCell>
        <mxCell id="6cbmy854WV_a_Utis2Cl-13" value="i++" style="whiteSpace=wrap;html=1;dashed=0;rounded=1;arcSize=50;" vertex="1" parent="1">
          <mxGeometry x="802" y="191.56" width="80" height="26.88" as="geometry" />
        </mxCell>
        <mxCell id="6cbmy854WV_a_Utis2Cl-14" value="[i &amp;lt;= N]" style="text;html=1;align=center;verticalAlign=middle;resizable=0;points=[];autosize=1;strokeColor=none;fillColor=none;fontFamily=Helvetica;fontSize=12;fontColor=default;" vertex="1" parent="1">
          <mxGeometry x="613" y="266.88" width="60" height="30" as="geometry" />
        </mxCell>
        <mxCell id="6cbmy854WV_a_Utis2Cl-15" value="" style="edgeStyle=orthogonalEdgeStyle;rounded=0;orthogonalLoop=1;jettySize=auto;html=1;fontFamily=Helvetica;fontSize=12;fontColor=default;entryX=0.5;entryY=0;entryDx=0;entryDy=0;" edge="1" parent="1" source="6cbmy854WV_a_Utis2Cl-16" target="6cbmy854WV_a_Utis2Cl-18">
          <mxGeometry relative="1" as="geometry" />
        </mxCell>
        <mxCell id="6cbmy854WV_a_Utis2Cl-16" value="&lt;font color=&quot;#3399ff&quot;&gt;вивід &lt;/font&gt;S" style="whiteSpace=wrap;html=1;dashed=0;rounded=1;arcSize=50;" vertex="1" parent="1">
          <mxGeometry x="550.76" y="350" width="97.5" height="34.5" as="geometry" />
        </mxCell>
        <mxCell id="6cbmy854WV_a_Utis2Cl-17" value="" style="edgeStyle=orthogonalEdgeStyle;rounded=0;orthogonalLoop=1;jettySize=auto;html=1;fontFamily=Helvetica;fontSize=12;fontColor=default;" edge="1" parent="1" source="6cbmy854WV_a_Utis2Cl-18" target="6cbmy854WV_a_Utis2Cl-19">
          <mxGeometry relative="1" as="geometry" />
        </mxCell>
        <mxCell id="6cbmy854WV_a_Utis2Cl-18" value="S = 0" style="whiteSpace=wrap;html=1;dashed=0;rounded=1;arcSize=50;" vertex="1" parent="1">
          <mxGeometry x="550.75" y="420" width="97.5" height="34.5" as="geometry" />
        </mxCell>
        <mxCell id="6cbmy854WV_a_Utis2Cl-30" style="edgeStyle=orthogonalEdgeStyle;rounded=0;orthogonalLoop=1;jettySize=auto;html=1;entryX=0.5;entryY=0;entryDx=0;entryDy=0;fontFamily=Helvetica;fontSize=12;fontColor=default;" edge="1" parent="1" source="6cbmy854WV_a_Utis2Cl-19" target="6cbmy854WV_a_Utis2Cl-21">
          <mxGeometry relative="1" as="geometry" />
        </mxCell>
        <mxCell id="6cbmy854WV_a_Utis2Cl-19" value="i = N" style="whiteSpace=wrap;html=1;dashed=0;rounded=1;arcSize=50;" vertex="1" parent="1">
          <mxGeometry x="550" y="490" width="97.5" height="34.5" as="geometry" />
        </mxCell>
        <mxCell id="6cbmy854WV_a_Utis2Cl-20" value="" style="edgeStyle=orthogonalEdgeStyle;rounded=0;orthogonalLoop=1;jettySize=auto;html=1;fontFamily=Helvetica;fontSize=12;fontColor=default;" edge="1" source="6cbmy854WV_a_Utis2Cl-21" target="6cbmy854WV_a_Utis2Cl-24" parent="1">
          <mxGeometry relative="1" as="geometry" />
        </mxCell>
        <mxCell id="6cbmy854WV_a_Utis2Cl-21" value="" style="rhombus;whiteSpace=wrap;html=1;dashed=0;rounded=0;arcSize=50;" vertex="1" parent="1">
          <mxGeometry x="583.88" y="560" width="31.25" height="30" as="geometry" />
        </mxCell>
        <mxCell id="6cbmy854WV_a_Utis2Cl-22" value="" style="edgeStyle=orthogonalEdgeStyle;rounded=0;orthogonalLoop=1;jettySize=auto;html=1;fontFamily=Helvetica;fontSize=12;fontColor=default;" edge="1" source="6cbmy854WV_a_Utis2Cl-24" target="6cbmy854WV_a_Utis2Cl-26" parent="1">
          <mxGeometry relative="1" as="geometry" />
        </mxCell>
        <mxCell id="6cbmy854WV_a_Utis2Cl-23" value="" style="edgeStyle=orthogonalEdgeStyle;rounded=0;orthogonalLoop=1;jettySize=auto;html=1;fontFamily=Helvetica;fontSize=12;fontColor=default;" edge="1" source="6cbmy854WV_a_Utis2Cl-24" parent="1">
          <mxGeometry relative="1" as="geometry">
            <mxPoint x="600" y="720" as="targetPoint" />
          </mxGeometry>
        </mxCell>
        <mxCell id="6cbmy854WV_a_Utis2Cl-24" value="" style="rhombus;whiteSpace=wrap;html=1;dashed=0;rounded=0;arcSize=50;" vertex="1" parent="1">
          <mxGeometry x="583.88" y="650" width="31.25" height="30" as="geometry" />
        </mxCell>
        <mxCell id="6cbmy854WV_a_Utis2Cl-25" value="" style="edgeStyle=orthogonalEdgeStyle;rounded=0;orthogonalLoop=1;jettySize=auto;html=1;fontFamily=Helvetica;fontSize=12;fontColor=default;" edge="1" source="6cbmy854WV_a_Utis2Cl-26" target="6cbmy854WV_a_Utis2Cl-28" parent="1">
          <mxGeometry relative="1" as="geometry" />
        </mxCell>
        <mxCell id="6cbmy854WV_a_Utis2Cl-26" value="S += (pow(sin(i), 2) + pow(cos(1.0 / i), 2)) / pow(i, 2)" style="whiteSpace=wrap;html=1;dashed=0;rounded=1;arcSize=50;" vertex="1" parent="1">
          <mxGeometry x="772" y="636.88" width="140" height="56.25" as="geometry" />
        </mxCell>
        <mxCell id="6cbmy854WV_a_Utis2Cl-27" style="edgeStyle=orthogonalEdgeStyle;rounded=0;orthogonalLoop=1;jettySize=auto;html=1;entryX=1;entryY=0.5;entryDx=0;entryDy=0;fontFamily=Helvetica;fontSize=12;fontColor=default;" edge="1" source="6cbmy854WV_a_Utis2Cl-28" target="6cbmy854WV_a_Utis2Cl-21" parent="1">
          <mxGeometry relative="1" as="geometry" />
        </mxCell>
        <mxCell id="6cbmy854WV_a_Utis2Cl-28" value="i++" style="whiteSpace=wrap;html=1;dashed=0;rounded=1;arcSize=50;" vertex="1" parent="1">
          <mxGeometry x="802" y="561.56" width="80" height="26.88" as="geometry" />
        </mxCell>
        <mxCell id="6cbmy854WV_a_Utis2Cl-29" value="[i &amp;lt;= N]" style="text;html=1;align=center;verticalAlign=middle;resizable=0;points=[];autosize=1;strokeColor=none;fillColor=none;fontFamily=Helvetica;fontSize=12;fontColor=default;" vertex="1" parent="1">
          <mxGeometry x="613" y="636.88" width="60" height="30" as="geometry" />
        </mxCell>
        <mxCell id="6cbmy854WV_a_Utis2Cl-34" value="" style="edgeStyle=orthogonalEdgeStyle;rounded=0;orthogonalLoop=1;jettySize=auto;html=1;fontFamily=Helvetica;fontSize=12;fontColor=default;" edge="1" parent="1" source="6cbmy854WV_a_Utis2Cl-31" target="6cbmy854WV_a_Utis2Cl-33">
          <mxGeometry relative="1" as="geometry" />
        </mxCell>
        <mxCell id="6cbmy854WV_a_Utis2Cl-31" value="&lt;font color=&quot;#3399ff&quot;&gt;вивід &lt;/font&gt;S" style="whiteSpace=wrap;html=1;dashed=0;rounded=1;arcSize=50;" vertex="1" parent="1">
          <mxGeometry x="550.76" y="720" width="97.5" height="34.5" as="geometry" />
        </mxCell>
        <mxCell id="6cbmy854WV_a_Utis2Cl-33" value="" style="ellipse;html=1;shape=endState;rounded=1;dashed=0;align=center;verticalAlign=middle;arcSize=50;fontFamily=Helvetica;fontSize=12;" vertex="1" parent="1">
          <mxGeometry x="583.75" y="790" width="30" height="30" as="geometry" />
        </mxCell>
      </root>
    </mxGraphModel>
  </diagram>
</mxfile>
